<svg width="100" height="97" viewBox="0 0 100 97" fill="none" xmlns="http://www.w3.org/2000/svg">
<path d="M89.1589 47C89.1589 69.1104 71.4196 87 49.5794 87C27.7392 87 10 69.1104 10 47C10 24.8896 27.7392 7 49.5794 7C71.4196 7 89.1589 24.8896 89.1589 47Z" stroke="#FFD532" stroke-width="4"/>
<path d="M40.8562 71.941C42.004 61.4243 44.4055 40.3909 44.8293 40.3909C45.2531 40.3909 36.5298 38.5129 32.1152 37.5739V31.6582L64.1653 21.7988C64.7833 24.8036 66.0724 30.9822 66.2843 31.6582C66.4962 32.3343 67.4321 38.5129 67.8735 41.5177L54.1 40.9543C55.5126 50.3442 58.6029 69.3494 59.6624 70.2508C60.9868 71.3776 40.5913 72.7861 40.5913 71.941" stroke="#FFD532" stroke-width="3"/>
</svg>
